<svg width="30" height="30" viewBox="0 0 30 30" fill="none" xmlns="http://www.w3.org/2000/svg">
<path d="M3 2.74091C2.44772 2.74091 2 3.18862 2 3.74091C2 4.29319 2.44772 4.74091 3 4.74091V2.74091ZM5.86567 3.74091L6.8309 3.47949C6.71284 3.04359 6.31728 2.74091 5.86567 2.74091V3.74091ZM10.5224 20.9349L9.55716 21.1964C9.68743 21.6773 10.1519 21.989 10.6464 21.9272L10.5224 20.9349ZM24.8507 19.1439L24.9748 20.1362C25.3995 20.0831 25.7433 19.7656 25.83 19.3465L24.8507 19.1439ZM27 8.75583L27.9793 8.95844C28.0402 8.66392 27.9653 8.35762 27.7754 8.12441C27.5855 7.89119 27.3007 7.75583 27 7.75583V8.75583ZM7.22388 8.75583L6.25865 9.01725L6.25865 9.01725L7.22388 8.75583ZM3 4.74091H5.86567V2.74091H3V4.74091ZM10.6464 21.9272L24.9748 20.1362L24.7267 18.1516L10.3984 19.9427L10.6464 21.9272ZM25.83 19.3465L27.9793 8.95844L26.0207 8.55323L23.8715 18.9413L25.83 19.3465ZM4.90044 4.00232L6.25865 9.01725L8.18911 8.49442L6.8309 3.47949L4.90044 4.00232ZM6.25865 9.01725L9.55716 21.1964L11.4876 20.6735L8.18911 8.49442L6.25865 9.01725ZM27 7.75583H7.22388V9.75583H27V7.75583ZM14 25.625C14 26.1082 13.6082 26.5 13.125 26.5V28.5C14.7128 28.5 16 27.2128 16 25.625H14ZM13.125 26.5C12.6418 26.5 12.25 26.1082 12.25 25.625H10.25C10.25 27.2128 11.5372 28.5 13.125 28.5V26.5ZM12.25 25.625C12.25 25.1417 12.6418 24.75 13.125 24.75V22.75C11.5372 22.75 10.25 24.0372 10.25 25.625H12.25ZM13.125 24.75C13.6082 24.75 14 25.1417 14 25.625H16C16 24.0372 14.7128 22.75 13.125 22.75V24.75ZM24 25.625C24 26.1082 23.6082 26.5 23.125 26.5V28.5C24.7128 28.5 26 27.2128 26 25.625H24ZM23.125 26.5C22.6418 26.5 22.25 26.1082 22.25 25.625H20.25C20.25 27.2128 21.5372 28.5 23.125 28.5V26.5ZM22.25 25.625C22.25 25.1417 22.6418 24.75 23.125 24.75V22.75C21.5372 22.75 20.25 24.0372 20.25 25.625H22.25ZM23.125 24.75C23.6082 24.75 24 25.1417 24 25.625H26C26 24.0372 24.7128 22.75 23.125 22.75V24.75Z" fill="white"/>
</svg>
